<svg id="Layer_1" data-name="Layer 1" xmlns="http://www.w3.org/2000/svg" viewBox="0 0 841.89 143.28"><defs><style>.cls-1{font-size:125.63px;font-family:SDFestivalDemoRegular, SDFestivalDemo;letter-spacing:0.04em;}.cls-1,.cls-2{fill:#fff200;}</style></defs><text class="cls-1" transform="translate(37.6 118.8) scale(1.07 1)">afoSEC</text><path class="cls-2" d="M519.56,103a27.18,27.18,0,0,1,4.67-8.06A66.73,66.73,0,0,1,533.05,86q4.59-3.92,9.2-7.74t9.19-7.68a38.42,38.42,0,0,0,7-9,18.39,18.39,0,0,0,2.34-8.68,26,26,0,0,0-1.92-10.29A19.81,19.81,0,0,0,553.1,35a24.48,24.48,0,0,0-8.47-4.37,39,39,0,0,0-11.19-1.47,37.83,37.83,0,0,0-9.18,1.06,26.11,26.11,0,0,0-7.84,3.36,18.11,18.11,0,0,0-6.11,6.15,15.64,15.64,0,0,0-2.05,8,12.53,12.53,0,0,0,3.79,9.43,13.6,13.6,0,0,0,9.89,3.67,19,19,0,0,0,4.41-.5,13.75,13.75,0,0,0,3.78-1.53,8.57,8.57,0,0,0,3.08-2.9,7.2,7.2,0,0,0,1-3.82,6.78,6.78,0,0,0-1.55-4.6A8.9,8.9,0,0,0,528,44.79a14.7,14.7,0,0,1,.51,1.55,5.91,5.91,0,0,1,.18,1.4,4.94,4.94,0,0,1-1.46,3.89,6.43,6.43,0,0,1-4.39,1.3,5.29,5.29,0,0,1-2.53-.61,5.41,5.41,0,0,1-2-2,10.8,10.8,0,0,1-1-2.34,9.07,9.07,0,0,1-.4-2.69,10.64,10.64,0,0,1,1.15-5,10.39,10.39,0,0,1,3.44-3.76A15.33,15.33,0,0,1,526,34.46a20.86,20.86,0,0,1,5.65-.71,13.32,13.32,0,0,1,4.48.73,12.16,12.16,0,0,1,3.73,2.12,10.27,10.27,0,0,1,2.8,3.38,8.92,8.92,0,0,1,.94,4,27.43,27.43,0,0,1-3.28,12.37,59.29,59.29,0,0,1-9.89,13.48q-5.24,5.55-9.12,10.51a80,80,0,0,0-6.4,9.33,71.55,71.55,0,0,0-5.06,11,83.38,83.38,0,0,0-3.41,12.39l59.6,3.61-3.76-21.32ZM549.5,46.11a3.86,3.86,0,0,1,2.82-.94,4.06,4.06,0,0,1,2.91.94,3.51,3.51,0,0,1,1,2.67,3.47,3.47,0,0,1-1,2.75,4.29,4.29,0,0,1-2.91.86,4.07,4.07,0,0,1-2.82-.86,3.53,3.53,0,0,1-1-2.75A3.58,3.58,0,0,1,549.5,46.11Zm-4.13,10.81a5.07,5.07,0,0,1,6.93,0,4.59,4.59,0,0,1,0,6.62,5.07,5.07,0,0,1-6.93,0,4.46,4.46,0,0,1,0-6.62ZM538,66.84a3.92,3.92,0,0,1,2.79-.91,4.13,4.13,0,0,1,2.94.91,3.63,3.63,0,0,1,1,2.75,3.53,3.53,0,0,1-1,2.72,4.17,4.17,0,0,1-2.94.89,4,4,0,0,1-2.79-.89,3.47,3.47,0,0,1-1-2.72A3.57,3.57,0,0,1,538,66.84Z"/><path class="cls-2" d="M634.13,44.83a33.59,33.59,0,0,0-11-11.52,27.51,27.51,0,0,0-28,0,34.14,34.14,0,0,0-11,11.52,55.08,55.08,0,0,0,0,57.75,33.72,33.72,0,0,0,11,11.48,27.83,27.83,0,0,0,28,0,33.18,33.18,0,0,0,11-11.48,54.11,54.11,0,0,0,6-13.72,57.55,57.55,0,0,0,0-30.3A53.86,53.86,0,0,0,634.13,44.83ZM632.53,84a50.52,50.52,0,0,1-1.76,7.2l-7.95-4.94-3.89,3.87,9.39,7a28.06,28.06,0,0,1-4.14,5.88,19.51,19.51,0,0,1-4.87,3.84L617.55,99l-5.87.72,1,8.8a13.73,13.73,0,0,1-8-2.6,24,24,0,0,1-6.74-7.78l5.17-3.61-2.29-4.17-5.28,2.85a51.42,51.42,0,0,1-1.84-5.83,38.49,38.49,0,0,1-1-5.72l7.41-2.5-2.18-4.93-5.71,1.57c0-1.45.06-2.95.19-4.5s.31-3.13.56-4.76l6.34,2.09,1.5-4.63L594,61.42a38.28,38.28,0,0,1,4.21-10.07,23,23,0,0,1,6.29-6.82l.9,8.86,5.33-1.33L610,41.94a4.37,4.37,0,0,1,1.17-.2q.75-.06,1.65-.06a13.51,13.51,0,0,1,6.59,1.68,19.21,19.21,0,0,1,5.67,4.94l-7.25,6.1,3,3.87,7.47-4.88a39.25,39.25,0,0,1,3.06,7.86A51.38,51.38,0,0,1,633,70.13l-6,.4.54,5.19,5.7.36A52.9,52.9,0,0,1,632.53,84Z"/><path class="cls-2" d="M613.52,65.16a7.19,7.19,0,0,0-5,2,6.16,6.16,0,0,0,0,9.32,7.18,7.18,0,0,0,5,2,6.73,6.73,0,0,0,4.83-2,6.29,6.29,0,0,0,0-9.29A6.8,6.8,0,0,0,613.52,65.16Z"/><path class="cls-2" d="M665.1,103a26.91,26.91,0,0,1,4.66-8.06A68,68,0,0,1,678.58,86q4.59-3.92,9.2-7.74t9.2-7.68a38.09,38.09,0,0,0,7-9,18.4,18.4,0,0,0,2.35-8.68,26,26,0,0,0-1.92-10.29A19.84,19.84,0,0,0,698.63,35a24.39,24.39,0,0,0-8.47-4.37A39,39,0,0,0,679,29.12a37.89,37.89,0,0,0-9.18,1.06A26.22,26.22,0,0,0,662,33.54a18.07,18.07,0,0,0-6.1,6.15,15.65,15.65,0,0,0-2.06,8,12.54,12.54,0,0,0,3.8,9.43,13.58,13.58,0,0,0,9.88,3.67,18.91,18.91,0,0,0,4.41-.5,13.63,13.63,0,0,0,3.78-1.53,8.57,8.57,0,0,0,3.08-2.9,7.21,7.21,0,0,0,1-3.82,6.78,6.78,0,0,0-1.56-4.6,8.87,8.87,0,0,0-4.71-2.62,12.7,12.7,0,0,1,.51,1.55,5.94,5.94,0,0,1,.19,1.4,4.91,4.91,0,0,1-1.47,3.89,6.41,6.41,0,0,1-4.39,1.3,5.22,5.22,0,0,1-2.52-.61,5.36,5.36,0,0,1-2-2,10.78,10.78,0,0,1-1-2.34,8.75,8.75,0,0,1-.4-2.69,10.64,10.64,0,0,1,1.14-5A10.48,10.48,0,0,1,667,36.55a15.27,15.27,0,0,1,4.59-2.09,20.81,20.81,0,0,1,5.65-.71,13.36,13.36,0,0,1,4.48.73,12.28,12.28,0,0,1,3.73,2.12,10.52,10.52,0,0,1,2.8,3.38,8.92,8.92,0,0,1,.93,4,27.3,27.3,0,0,1-3.28,12.37A59.29,59.29,0,0,1,676,69.87q-5.22,5.55-9.12,10.51a79.82,79.82,0,0,0-6.39,9.33,70.65,70.65,0,0,0-5.07,11A83.38,83.38,0,0,0,652,113.12l59.6,3.61-3.75-21.32ZM695,46.11a3.87,3.87,0,0,1,2.83-.94,4,4,0,0,1,2.9.94,3.52,3.52,0,0,1,1,2.67,3.47,3.47,0,0,1-1,2.75,4.26,4.26,0,0,1-2.9.86,4.08,4.08,0,0,1-2.83-.86,3.53,3.53,0,0,1-1-2.75A3.58,3.58,0,0,1,695,46.11ZM690.9,56.92a4.89,4.89,0,0,1,3.44-1.37,4.84,4.84,0,0,1,3.49,1.37,4.59,4.59,0,0,1,0,6.62,4.84,4.84,0,0,1-3.49,1.37,4.89,4.89,0,0,1-3.44-1.37,4.46,4.46,0,0,1,0-6.62Zm-7.41,9.92a4,4,0,0,1,2.8-.91,4.12,4.12,0,0,1,2.93.91,3.63,3.63,0,0,1,1,2.75,3.53,3.53,0,0,1-1,2.72,4.16,4.16,0,0,1-2.93.89,4,4,0,0,1-2.8-.89,3.47,3.47,0,0,1-1-2.72A3.57,3.57,0,0,1,683.49,66.84Z"/><polygon class="cls-2" points="791.49 79.33 776.14 79.08 768.25 79.03 768.25 78.93 762.65 78.83 762.38 64.94 753.86 66.92 754.39 78.67 743.46 78.57 753.96 26.09 744.45 24.44 729.91 64.51 736.14 66.55 734.49 71.28 728.26 69.04 726.45 74.13 733.69 76.47 732.36 81.15 724.74 78.81 722.93 83.89 730.44 86.33 728.52 90.45 721.33 88.27 719.15 94.27 736.88 99.89 755.08 95.67 756.41 128.03 763.93 126.04 763.19 93.89 768.25 92.82 775.61 90.99 793.31 87.12 791.49 79.33"/></svg>