<?xml version="1.0" encoding="UTF-8" standalone="no"?><!DOCTYPE svg PUBLIC "-//W3C//DTD SVG 1.1//EN" "http://www.w3.org/Graphics/SVG/1.1/DTD/svg11.dtd"><svg width="100%" height="100%" viewBox="0 0 570 564" version="1.1" xmlns="http://www.w3.org/2000/svg" xmlns:xlink="http://www.w3.org/1999/xlink" xml:space="preserve" xmlns:serif="http://www.serif.com/" style="fill-rule:evenodd;clip-rule:evenodd;stroke-linejoin:round;stroke-miterlimit:2;"><path d="M446.006,87.015c50.895,49.778 82.595,116.268 86.419,190.903c2.162,81.075 -25.297,149.109 -74.824,208.609c-49.359,53.336 -113.088,75.795 -181.601,76.657c-65.093,-0.534 -125.851,-28.048 -171.931,-77.839c-47.425,-55.234 -75.587,-121.216 -73.128,-197.641c0.232,-4.302 0.464,-8.605 0.704,-13.038c0.118,-3.809 0.237,-7.619 0.359,-11.544c3.496,-67.761 36.19,-128.564 81.275,-174.209c97.563,-89.026 234.371,-91.248 332.727,-1.898Z" style="fill-rule:nonzero;"/><path d="M465.091,65.528c3.779,2.949 3.779,2.949 7.634,5.957c18.921,15.253 32.852,32.37 46.533,52.376c1.799,2.519 3.598,5.038 5.452,7.634c41.521,61.44 52.394,135.056 39.6,206.95c-6.037,27.841 -14.877,52.056 -28.385,77.083c-1.939,3.599 -3.878,7.197 -5.876,10.905c-39.475,69.265 -98.915,109.015 -173.893,131.868c-11.898,3.06 -11.898,3.06 -24.398,3.06l-0,-195.833l66.667,-0c1.201,-21.188 1.201,-21.188 2.367,-42.379c0.853,-14.331 2.469,-26.966 5.966,-40.954l-75,-0c-0.43,-11.258 -0.86,-22.516 -1.302,-34.115c-0.19,-3.508 -0.38,-7.017 -0.575,-10.631c-0.31,-16.844 0.724,-24.394 10.471,-38.718c22.14,-14.839 44.642,-9.415 70.573,-8.203l-0,-75c-14.501,-0.454 -28.986,-0.782 -43.49,-1.042c-4.058,-0.139 -8.116,-0.279 -12.297,-0.423c-33.858,-0.453 -59.037,6.283 -85.359,28.027c-19.315,23.859 -25.48,46.938 -26.839,77.035c-0.262,5.539 -0.262,5.539 -0.529,11.19c-0.164,3.8 -0.328,7.6 -0.497,11.515c-0.27,5.821 -0.27,5.821 -0.545,11.759c-0.44,9.535 -0.861,19.07 -1.278,28.606l-75,-0l0,83.333l75,-0l0,195.833c-79.669,-9.958 -141.951,-51.214 -190.885,-114.062c-42.474,-64.714 -57.389,-140.636 -44.985,-216.775c8.95,-41.74 26.408,-78.604 48.37,-114.996l8.334,-0c1.009,-2.342 2.019,-4.684 3.059,-7.096c27.879,-50.594 87.853,-79.705 139.877,-98.357c92.656,-23.768 187.597,-5.562 261.23,55.453Z" style="fill:#fff;fill-rule:nonzero;"/></svg>