<svg width="48" height="48" viewBox="0 0 48 48" fill="none" xmlns="http://www.w3.org/2000/svg">
<g id="Group">
<path id="Vector" d="M47.862 14.1059C47.742 11.5529 47.337 9.80693 46.746 8.28293C46.1427 6.68161 45.1978 5.23096 43.977 4.03193C42.7789 2.80996 41.328 1.86487 39.726 1.26293C38.196 0.66893 36.45 0.26393 33.897 0.14693M47.862 14.1059L46.863 14.1504C46.863 14.1508 46.863 14.1512 46.863 14.1516M47.862 14.1059L46.8631 14.1529C46.8631 14.1525 46.863 14.152 46.863 14.1516M47.862 14.1059C47.976 16.6679 48.006 17.4839 48.006 24.0029C48.006 30.5219 47.976 31.3379 47.862 33.8969M46.863 14.1516C46.7474 11.693 46.3607 10.0553 45.8136 8.64449L45.8101 8.63547L45.8102 8.63546C45.2582 7.17009 44.3935 5.84261 43.2763 4.74538L43.2695 4.73877L43.2629 4.73203C42.1669 3.6142 40.8397 2.74966 39.3742 2.19903L39.364 2.1952L39.3641 2.19514C37.9473 1.64512 36.31 1.25862 33.8519 1.14591M46.863 14.1516C46.976 16.6909 47.006 17.4907 47.006 24.0029C47.006 30.5141 46.976 31.3147 46.8631 33.85M33.8519 1.14591C33.8521 1.14592 33.8523 1.14593 33.8525 1.14594L33.897 0.14693M33.8519 1.14591C33.8516 1.1459 33.8514 1.14589 33.8512 1.14588L33.897 0.14693M33.8519 1.14591C31.3133 1.03295 30.5164 1.00296 24.009 1.00293V0.00292969C30.5227 0.0029573 31.3362 0.0329822 33.897 0.14693M46.8631 33.85L47.862 33.8969M46.8631 33.85C46.7475 36.311 46.3612 37.946 45.8141 39.3602M46.8631 33.85C46.863 33.8508 46.863 33.8516 46.863 33.8524L47.862 33.8969M47.862 33.8969C47.742 36.4529 47.337 38.1959 46.746 39.7229M45.8141 39.3602C45.8141 39.3601 45.8142 39.3599 45.8142 39.3598L46.746 39.7229M45.8141 39.3602C45.2455 40.8191 44.4995 42.0372 43.2699 43.2668L43.2698 43.2668L43.263 43.2738C42.1674 44.3911 40.841 45.2556 39.3766 45.8071L39.3766 45.807L39.3664 45.811C37.9543 46.3603 36.3142 46.7442 33.8543 46.86M45.8141 39.3602C45.8139 39.3608 45.8136 39.3614 45.8134 39.362L46.746 39.7229M46.746 39.7229C46.131 41.3009 45.312 42.6389 43.977 43.9739C42.7794 45.1952 41.3297 46.1402 39.729 46.7429C38.202 47.3369 36.453 47.7389 33.9 47.8589M33.8543 46.86C33.8547 46.86 33.8551 46.8599 33.8555 46.8599L33.9 47.8589M33.8543 46.86C31.315 46.973 30.5182 47.0029 24.006 47.0029C17.4935 47.0029 16.6939 46.973 14.1543 46.86M33.8543 46.86C33.8539 46.86 33.8535 46.86 33.853 46.86L33.9 47.8589M33.9 47.8589C31.338 47.9729 30.525 48.0029 24.006 48.0029C17.487 48.0029 16.671 47.9729 14.109 47.8589M14.1543 46.86C14.1545 46.86 14.1546 46.86 14.1547 46.86L14.109 47.8589M14.1543 46.86C11.6935 46.7473 10.062 46.3609 8.6449 45.8107L8.64457 45.8106C7.18757 45.2455 5.96991 44.4974 4.74288 43.2676L4.74209 43.2668C3.5125 42.0372 2.76659 40.8192 2.19795 39.3604M14.1543 46.86C14.154 46.8599 14.1537 46.8599 14.1534 46.8599L14.109 47.8589M14.109 47.8589C11.553 47.7419 9.81298 47.3369 8.28298 46.7429L2.19795 39.3604M2.19795 39.3604C1.6485 37.9479 1.26465 36.3138 1.14894 33.8512M2.19795 39.3604L24 1.00293C17.4992 1.00295 16.6962 1.03293 14.1606 1.14589C11.695 1.26161 10.0609 1.64548 8.64852 2.1949L8.63806 2.19897L8.63803 2.19891C7.17262 2.7501 5.84528 3.6147 4.74879 4.73227L4.74232 4.73887L4.73572 4.74534C3.61857 5.84265 2.75387 7.17015 2.20176 8.63551L2.19777 8.64611L2.19771 8.64608C1.64821 10.0559 1.26168 11.6928 1.14896 14.1481M2.19795 39.3604L1.26598 39.7229M2.19795 39.3604C2.19787 39.3602 2.1978 39.36 2.19772 39.3598L1.26598 39.7229M1.14894 33.8512C1.03595 31.3149 1.00598 30.5152 1.00598 24.0059C1.00598 17.4903 1.03595 16.6908 1.14896 14.1481M1.14894 33.8512C1.14892 33.8508 1.1489 33.8504 1.14888 33.85L0.149981 33.8969M1.14894 33.8512C1.14896 33.8516 1.14897 33.852 1.14899 33.8524L0.149981 33.8969M1.14896 14.1481C1.14897 14.1478 1.14898 14.1476 1.149 14.1473L0.149981 14.1029M1.14896 14.1481C1.14895 14.1483 1.14894 14.1485 1.14893 14.1488L0.149981 14.1029M0.149981 14.1029C0.0359815 16.6679 0.00598145 17.4839 0.00598145 24.0059C0.00598145 30.5219 0.0359815 31.3379 0.149981 33.8969M0.149981 14.1029C0.266981 11.5529 0.671981 9.80693 1.26598 8.28293C1.8693 6.68165 2.81421 5.23102 4.03498 4.03193L0.149981 33.8969M0.149981 33.8969C0.269981 36.4529 0.671981 38.1959 1.26598 39.7229M0.149981 33.8969L4.03498 43.9739C2.69998 42.6389 1.88098 41.3009 1.26598 39.7229M38.5235 4.35918L38.5253 4.35988C39.7725 4.84472 40.6912 5.44293 41.6301 6.38182C42.5691 7.3208 43.1641 8.23644 43.6486 9.48557M38.5235 4.35918L42.717 9.84893M38.5235 4.35918C37.58 3.99448 36.2017 3.57803 33.7506 3.46797C31.1979 3.34988 30.4195 3.32893 24.009 3.32893H22.855V3.32226L21.8543 3.32293C17.3716 3.32594 16.4976 3.35608 14.264 3.45899L14.2639 3.45899C11.8151 3.57201 10.4391 3.98477 9.49256 4.35391C8.24295 4.83851 7.32709 5.43361 6.38787 6.37282C5.44911 7.31158 4.85094 8.23013 4.36614 9.47707C3.99685 10.4239 3.58407 11.803 3.47104 14.2518L3.471 14.2529M38.5235 4.35918L3.471 14.2529M43.6486 9.48557C43.6489 9.4862 43.6491 9.48682 43.6494 9.48745L42.717 9.84893M43.6486 9.48557C43.6485 9.48518 43.6483 9.4848 43.6482 9.48441L42.717 9.84893M43.6486 9.48557C44.0184 10.4304 44.431 11.8099 44.5409 14.2577M42.717 9.84893C43.047 10.6919 43.437 11.9639 43.542 14.3039M44.5409 14.2577L43.542 14.3039M44.5409 14.2577C44.5409 14.2582 44.541 14.2586 44.541 14.2591L43.542 14.3039M44.5409 14.2577C44.659 16.8103 44.683 17.5878 44.683 23.9969C44.683 30.406 44.659 31.1865 44.5409 33.7391M43.542 14.3039L44.5409 33.7391M44.5409 33.7391C44.4311 36.184 44.0164 37.5584 43.6525 38.5014M44.5409 33.7391C44.5409 33.7387 44.541 33.7382 44.541 33.7378L43.6525 38.5014M43.6525 38.5014C43.2166 39.6787 42.5226 40.7435 41.6215 41.6176C40.6845 42.5533 39.7701 43.147 38.5235 43.6305C37.5807 44.0007 36.2009 44.4129 33.751 44.5259L33.75 44.5259C31.1986 44.6409 30.4222 44.6679 24.009 44.6679C17.5958 44.6679 16.8163 44.6409 14.265 44.5259L14.2639 44.5259C11.8217 44.4131 10.4465 44.0023 9.50014 43.6339C8.32566 43.1995 7.26267 42.509 6.38833 41.6126C5.48933 40.7385 4.79639 39.675 4.3599 38.4994C3.99533 37.558 3.58073 36.18 3.471 33.735L43.6525 38.5014ZM3.471 14.2529C3.35596 16.8048 3.33198 17.5787 3.33198 23.9909C3.33198 30.4059 3.35596 31.183 3.47099 33.7348L3.471 14.2529ZM35.4896 12.5223L34.7825 13.2294L35.4896 12.5223C35.315 12.3477 35.1766 12.1405 35.0821 11.9124C34.9876 11.6843 34.939 11.4398 34.939 11.1929C34.939 10.946 34.9876 10.7016 35.0821 10.4735C35.1766 10.2454 35.315 10.0381 35.4896 9.86357C35.6642 9.689 35.8714 9.55052 36.0995 9.45604C36.3276 9.36156 36.5721 9.31293 36.819 9.31293C37.3176 9.31293 37.7958 9.511 38.1483 9.86357C38.5009 10.2161 38.699 10.6943 38.699 11.1929C38.699 11.6915 38.5009 12.1697 38.1483 12.5223C37.7958 12.8749 37.3176 13.0729 36.819 13.0729C36.5721 13.0729 36.3276 13.0243 36.0995 12.9298C35.8714 12.8353 35.6642 12.6969 35.4896 12.5223ZM19.6048 13.4896C20.9994 12.931 22.4912 12.6554 23.9934 12.6788C26.9665 12.7252 29.8022 13.9388 31.8883 16.0577C33.9744 18.1767 35.1437 21.0309 35.1437 24.0044C35.1437 26.9779 33.9744 29.8322 31.8883 31.9511C29.8022 34.07 26.9665 35.2837 23.9934 35.3301C22.4912 35.3535 20.9994 35.0779 19.6048 34.5192C18.2101 33.9606 16.9406 33.1301 15.87 32.0761C14.7994 31.0221 13.9492 29.7656 13.3689 28.3799C12.7886 26.9941 12.4897 25.5068 12.4897 24.0044C12.4897 22.5021 12.7886 21.0147 13.3689 19.629C13.9492 18.2433 14.7994 16.9868 15.87 15.9328C16.9406 14.8788 18.2101 14.0483 19.6048 13.4896ZM30.3737 17.6383C28.6856 15.9502 26.3962 15.0019 24.009 15.0019C21.6218 15.0019 19.3323 15.9502 17.6443 17.6383C15.9563 19.3263 15.008 21.6157 15.008 24.0029C15.008 26.3901 15.9563 28.6796 17.6443 30.3676C19.3323 32.0556 21.6218 33.0039 24.009 33.0039C26.3962 33.0039 28.6856 32.0556 30.3736 30.3676C32.0617 28.6796 33.01 26.3901 33.01 24.0029C33.01 21.6157 32.0617 19.3263 30.3737 17.6383Z" stroke="white" stroke-width="2"/>
</g>
</svg>
