<svg width="48" height="48" viewBox="0 0 48 48" fill="none" xmlns="http://www.w3.org/2000/svg">
<g id="Group">
<path id="Vector" d="M28.759 23.15H34.413H35.5767L35.4016 24.3005L34.3396 31.2785L34.2103 32.128H33.351H28.756V46.8019C39.174 44.5998 47.006 35.297 47.006 24.15C47.006 11.3585 36.702 1.00012 24.0062 1L28.759 23.15ZM28.759 23.15V19.62C28.759 18.8084 28.9583 18.13 29.3551 17.6677C29.7277 17.2337 30.3982 16.846 31.668 16.846H34.695H35.695V15.846V9.906V9.06297L34.8641 8.9204L34.695 9.906C34.8641 8.9204 34.864 8.92039 34.8639 8.92037L34.8637 8.92033L34.863 8.92021L34.8609 8.91985L34.8537 8.91863L34.8276 8.91425C34.8051 8.91051 34.7725 8.90516 34.7305 8.89841C34.6465 8.88493 34.525 8.8659 34.3714 8.84318C34.0644 8.79776 33.6287 8.73744 33.1093 8.67717C32.0747 8.55712 30.6895 8.435 29.322 8.435C26.3777 8.435 23.8332 9.33656 22.0242 11.1576C20.2148 12.979 19.256 15.6045 19.256 18.828V23.153H14.16H13.16V24.153V31.131V32.131H14.16H19.25V46.8049C8.83196 44.6028 1 35.3 1 24.153C1 11.3588 11.3038 1.003 24.006 1L28.759 23.15Z" stroke="white" stroke-width="2"/>
</g>
</svg>
