<svg width="48" height="40" viewBox="0 0 48 40" fill="none" xmlns="http://www.w3.org/2000/svg">
<g id="Group">
<path id="Vector" d="M7.22631 25.363C8.19296 25.367 9.15562 25.2389 10.0876 24.9821L10.0215 23.0381C8.02048 22.6307 6.22151 21.5449 4.92867 19.9642C3.94782 18.765 3.30393 17.3367 3.04923 15.8255C4.1075 16.2016 5.2206 16.4141 6.35003 16.4525L9.85547 16.5716L6.93987 14.6218C5.06741 13.3696 3.74171 11.4517 3.23198 9.25754C2.83286 7.53952 2.95743 5.75299 3.57212 4.12273C5.94443 6.73768 8.77785 8.90042 11.9351 10.5003C15.5574 12.3358 19.5252 13.3894 23.5809 13.5928L24.9055 13.6592L24.605 12.3674C24.1634 10.4695 24.3599 8.47887 25.1642 6.70395C25.9685 4.92903 27.3356 3.46885 29.0537 2.54958C30.7719 1.63031 32.7453 1.30326 34.6682 1.61908C36.591 1.93491 38.3561 2.87599 39.69 4.29655L40.0676 4.69872L40.6092 4.59377C41.9182 4.34012 43.197 3.96045 44.4282 3.46142C43.7321 4.40716 42.8501 5.2135 41.8259 5.82568L42.4587 7.67684C43.3395 7.57062 44.2116 7.40876 45.0696 7.19268C44.2838 8.01057 43.425 8.75828 42.5026 9.426L42.0669 9.74143L42.0899 10.2789C42.1068 10.6738 42.107 11.0783 42.107 11.502C42.107 24.0645 32.5313 38.504 15.084 38.504H15.0837C11.2828 38.5052 7.54004 37.705 4.09404 36.1731C8.13167 35.8383 11.9974 34.3277 15.2037 31.8095L17.4144 30.0731L14.6037 30.0232C12.7577 29.9904 10.9682 29.3811 9.48582 28.2806C8.43536 27.5007 7.5764 26.5018 6.96381 25.3605C7.05128 25.3624 7.13878 25.3633 7.22631 25.363ZM7.22631 25.363C7.22755 25.363 7.22878 25.363 7.23002 25.363L7.22698 24.363L7.22251 25.363C7.22378 25.363 7.22505 25.363 7.22631 25.363ZM2.34586 35.3193L2.34436 36.244C2.34533 36.244 2.3463 36.244 2.34727 36.244C2.34824 36.244 2.34922 36.244 2.3502 36.244L2.3463 35.3195C2.34615 35.3194 2.34601 35.3193 2.34586 35.3193Z" stroke="white" stroke-width="2"/>
</g>
</svg>
