<?xml version="1.0" encoding="UTF-8" standalone="no"?><!DOCTYPE svg PUBLIC "-//W3C//DTD SVG 1.1//EN" "http://www.w3.org/Graphics/SVG/1.1/DTD/svg11.dtd"><svg width="100%" height="100%" viewBox="0 0 565 570" version="1.1" xmlns="http://www.w3.org/2000/svg" xmlns:xlink="http://www.w3.org/1999/xlink" xml:space="preserve" xmlns:serif="http://www.serif.com/" style="fill-rule:evenodd;clip-rule:evenodd;stroke-linejoin:round;stroke-miterlimit:2;"><path d="M464.193,67.463c53.064,46.958 93.531,107.826 99.318,180.188c3.793,91.053 -12.407,162.252 -72.105,233.191c-51.795,55.88 -117.831,84.777 -193.441,88.558c-80.22,2.668 -150.818,-21.146 -210.465,-76.058c-58.813,-58.078 -85.106,-126.756 -87.5,-208.333c0.534,-80.326 30.594,-144.802 85.286,-202.523c28.631,-27.83 57.622,-44.167 93.881,-59.977c2.991,-1.407 5.983,-2.815 9.065,-4.264c89.971,-38.917 203.059,-12.361 275.961,49.218Z" style="fill:#fff;fill-rule:nonzero;"/><path d="M227.197,108.349c6.177,-0.018 6.177,-0.018 12.479,-0.037c8.667,-0.008 17.334,0.015 26.001,0.067c13.176,0.067 26.347,0.001 39.523,-0.079c8.461,0.008 16.922,0.024 25.383,0.049c3.894,-0.026 7.788,-0.051 11.801,-0.077c35.321,0.373 66.756,7.012 93.071,31.846c22.847,27.183 25.37,57.7 25.092,91.896c0.024,6.585 0.024,6.585 0.048,13.302c0.011,9.231 -0.019,18.461 -0.089,27.691c-0.089,14.046 -0,28.083 0.106,42.129c-0.011,9.011 -0.032,18.023 -0.065,27.034c0.034,4.155 0.067,8.31 0.102,12.59c-0.396,29.889 -5.397,56.758 -25.907,79.642c-28.063,26.872 -60.17,31.688 -97.47,31.434c-3.923,0.012 -7.846,0.024 -11.889,0.036c-8.257,0.008 -16.514,-0.014 -24.771,-0.067c-12.527,-0.067 -25.048,-0 -37.575,0.08c-8.067,-0.009 -16.135,-0.025 -24.202,-0.049c-3.691,0.025 -7.382,0.05 -11.184,0.076c-38.659,-0.428 -71.711,-8.413 -100.047,-35.493c-23.506,-27.461 -24.11,-61.59 -24.284,-95.996c-0.023,-3.673 -0.047,-7.347 -0.072,-11.132c-0.039,-7.76 -0.066,-15.521 -0.082,-23.282c-0.041,-11.777 -0.17,-23.552 -0.301,-35.329c-0.028,-7.568 -0.05,-15.137 -0.066,-22.705c-0.051,-3.478 -0.102,-6.956 -0.155,-10.539c0.141,-37.945 11.277,-69.799 35.637,-99.031c26.922,-22.734 55.156,-24.275 88.916,-24.056Z" style="fill:#fff;fill-rule:nonzero;"/><path d="M227.197,108.349c6.177,-0.018 6.177,-0.018 12.479,-0.037c8.667,-0.008 17.334,0.015 26.001,0.067c13.176,0.067 26.347,0.001 39.523,-0.079c8.461,0.008 16.922,0.024 25.383,0.049c3.894,-0.026 7.788,-0.051 11.801,-0.077c35.321,0.373 66.756,7.012 93.071,31.846c22.847,27.183 25.37,57.7 25.092,91.896c0.024,6.585 0.024,6.585 0.048,13.302c0.011,9.231 -0.019,18.461 -0.089,27.691c-0.089,14.046 -0,28.083 0.106,42.129c-0.011,9.011 -0.032,18.023 -0.065,27.034c0.034,4.155 0.067,8.31 0.102,12.59c-0.396,29.889 -5.397,56.758 -25.907,79.642c-28.063,26.872 -60.17,31.688 -97.47,31.434c-3.923,0.012 -7.846,0.024 -11.889,0.036c-8.257,0.008 -16.514,-0.014 -24.771,-0.067c-12.527,-0.067 -25.048,-0 -37.575,0.08c-8.067,-0.009 -16.135,-0.025 -24.202,-0.049c-3.691,0.025 -7.382,0.05 -11.184,0.076c-38.659,-0.428 -71.711,-8.413 -100.047,-35.493c-23.506,-27.461 -24.11,-61.59 -24.284,-95.996c-0.023,-3.673 -0.047,-7.347 -0.072,-11.132c-0.039,-7.76 -0.066,-15.521 -0.082,-23.282c-0.041,-11.777 -0.17,-23.552 -0.301,-35.329c-0.028,-7.568 -0.05,-15.137 -0.066,-22.705c-0.051,-3.478 -0.102,-6.956 -0.155,-10.539c0.141,-37.945 11.277,-69.799 35.637,-99.031c26.922,-22.734 55.156,-24.275 88.916,-24.056Zm-60.53,47.493c-4.641,2.707 -4.641,2.707 -9.375,5.469c-14.586,14.064 -16.131,32.259 -16.704,51.685c-0.054,7.641 -0.061,15.283 -0.028,22.924c-0.008,4.067 -0.016,8.135 -0.024,12.325c-0.006,8.573 0.009,17.146 0.044,25.719c0.045,13.084 0.001,26.167 -0.053,39.251c0.006,8.35 0.017,16.699 0.033,25.049c-0.017,3.894 -0.034,7.788 -0.051,11.8c-0.008,33.723 -0.008,33.723 15.66,62.63c2.347,1.606 4.694,3.212 7.112,4.867c2.294,1.66 4.587,3.319 6.95,5.029c23.103,10.563 50.48,8.965 75.472,9.099c5.245,0.035 5.245,0.035 10.595,0.072c7.354,0.039 14.707,0.066 22.061,0.082c11.192,0.041 22.38,0.17 33.571,0.301c7.178,0.028 14.356,0.049 21.534,0.065c4.968,0.078 4.968,0.078 10.037,0.156c27.297,-0.108 46.275,-6.071 68.218,-23.137c18.261,-23.479 18.736,-52.032 18.701,-80.713c0.027,-4.929 0.027,-4.929 0.054,-9.957c0.024,-6.902 0.026,-13.803 0.008,-20.704c-0.013,-10.46 0.085,-20.916 0.19,-31.375c0.651,-56.203 0.651,-56.203 -23.12,-106.21c-25.059,-18.376 -54.841,-18.213 -84.798,-18.18c-3.685,-0.018 -7.371,-0.036 -11.168,-0.054c-7.738,-0.024 -15.477,-0.026 -23.215,-0.008c-11.805,0.013 -23.605,-0.085 -35.409,-0.19c-7.552,-0.01 -15.104,-0.013 -22.656,-0.008c-3.503,-0.039 -7.006,-0.077 -10.616,-0.117c-20.892,0.164 -34.727,2.99 -53.023,14.13Z" style="fill:#040000;fill-rule:nonzero;"/><path d="M329.167,205.842c20.237,14.841 38.266,29.575 45.833,54.167c3.776,30.64 0.775,57.391 -16.667,83.333c-17.746,20.133 -35.358,33.691 -62.5,37.5c-33.243,0.362 -60.48,-10.288 -84.896,-32.812c-20.542,-22.552 -20.932,-46.811 -20.279,-76.221c2.228,-26.063 16.219,-42.127 34.537,-59.521c30.364,-24.048 70.735,-26.966 103.972,-6.446Z" style="fill-rule:nonzero;"/><path d="M313.802,235.269c14.41,10.389 21.8,20.588 27.865,37.24c2.541,21.056 0.29,33.098 -12.5,50c-11.784,13.257 -19.733,19.575 -37.712,21.973c-18.394,0.826 -26.981,0.103 -43.018,-9.994c-12.805,-14.025 -23.098,-25.506 -23.681,-45.247c1.99,-22.529 8.203,-38.471 25.765,-53.451c21.56,-8.905 41.294,-7.573 63.281,-0.521Z" style="fill:#fff;fill-rule:nonzero;"/><path d="M381.51,169.123c10.157,3.386 10.157,3.386 18.49,15.886c-2.315,23.148 -2.315,23.148 -8.333,29.167c-21.744,1.89 -21.744,1.89 -33.073,-4.688c-4.427,-7.812 -4.427,-7.812 -3.907,-20.573c4.696,-15.763 10.002,-21.022 26.823,-19.792Z" style="fill:#0d0000;fill-rule:nonzero;"/></svg>