<?xml version="1.0" encoding="UTF-8" standalone="no"?><!DOCTYPE svg PUBLIC "-//W3C//DTD SVG 1.1//EN" "http://www.w3.org/Graphics/SVG/1.1/DTD/svg11.dtd"><svg width="100%" height="100%" viewBox="0 0 568 569" version="1.1" xmlns="http://www.w3.org/2000/svg" xmlns:xlink="http://www.w3.org/1999/xlink" xml:space="preserve" xmlns:serif="http://www.serif.com/" style="fill-rule:evenodd;clip-rule:evenodd;stroke-linejoin:round;stroke-miterlimit:2;"><path d="M454.753,59.079c5.974,4.951 11.879,9.985 17.709,15.104c2.82,2.428 5.639,4.855 8.545,7.357c36.693,33.914 60.996,78.252 74.788,125.976c1.482,5.124 2.965,10.248 4.492,15.528c16.588,68.018 1.665,141.311 -30.745,202.05c-11.781,19.283 -25.444,36.371 -40.414,53.256c-2.213,2.605 -4.425,5.21 -6.705,7.894c-42.407,46.5 -110.117,77.275 -172.754,81.575c-83.845,2.798 -155.673,-18.065 -220.541,-72.803c-48.051,-46.232 -87.149,-110.262 -88.492,-178.499c-1.6,-101.896 -1.6,-101.896 17.659,-142.334c1.767,-3.878 3.534,-7.756 5.355,-11.751c37.921,-75.844 102.858,-127.551 182.405,-154.655c84.999,-20.059 179.114,-0.739 248.698,51.302Z" style="fill:#fff;fill-rule:nonzero;"/><path d="M422.462,220.016c18.918,12.945 23.774,32.76 29.166,54.167c1.488,13.124 1.474,26.015 1.221,39.209c-0.018,3.554 -0.035,7.108 -0.054,10.769c-0.069,11.207 -0.226,22.41 -0.385,33.616c-0.063,7.658 -0.12,15.315 -0.171,22.973c-0.137,18.646 -0.352,37.289 -0.611,55.933l-66.666,-0c-0.204,-8.733 -0.409,-17.467 -0.619,-26.465c-0.225,-8.523 -0.464,-17.045 -0.704,-25.567c-0.159,-5.892 -0.304,-11.784 -0.435,-17.676c-0.192,-8.504 -0.433,-17.005 -0.684,-25.507c-0.131,-5.106 -0.262,-10.212 -0.396,-15.472c-1.682,-18.112 -4.569,-33.466 -16.694,-47.386c-14.239,-6.542 -23.87,-4.061 -38.802,-0.26c-7.616,4.132 -7.616,4.132 -12.5,12.5c-1.379,11.334 -2.035,21.769 -2.132,33.121c-0.075,3.22 -0.149,6.439 -0.226,9.756c-0.226,10.273 -0.367,20.546 -0.506,30.821c-0.138,6.969 -0.282,13.937 -0.432,20.906c-0.364,17.077 -0.614,34.149 -0.87,51.229l-75,-0c-0.103,-30.78 -0.179,-61.561 -0.229,-92.341c-0.021,-10.481 -0.05,-20.961 -0.086,-31.441c-0.05,-15.028 -0.074,-30.055 -0.092,-45.082c-0.022,-4.718 -0.043,-9.436 -0.065,-14.296c-0.001,-4.338 -0.001,-8.675 -0.001,-13.144c-0.01,-3.84 -0.019,-7.68 -0.028,-11.636c0.501,-8.727 0.501,-8.727 4.667,-12.893c11.236,-0.305 22.363,-0.385 33.594,-0.261c3.161,0.019 6.322,0.038 9.579,0.057c7.831,0.049 15.663,0.124 23.494,0.204c1.375,5.5 2.75,11 4.167,16.666c2.922,-2.578 5.843,-5.156 8.854,-7.812c32.898,-24.316 67.901,-20.651 103.646,-4.688Z" style="fill-rule:nonzero;"/><rect x="122.462" y="215.85" width="70.833" height="220.833" style="fill-rule:nonzero;"/><path d="M167.628,105.547c9,1.969 9,1.969 21.761,10.042c10.835,17.127 11.95,30.504 8.073,50.261c-6.859,11.43 -11.754,15.2 -24.463,18.994c-14.775,2.709 -23.451,2.701 -37.516,-3.109c-14.282,-12.181 -16.641,-19.92 -19.011,-38.542c1.823,-14.843 1.823,-14.843 9.896,-27.083c14.898,-10.033 23.616,-11.712 41.26,-10.563Z" style="fill-rule:nonzero;"/></svg>