<?xml version="1.0" encoding="UTF-8" standalone="no"?><!DOCTYPE svg PUBLIC "-//W3C//DTD SVG 1.1//EN" "http://www.w3.org/Graphics/SVG/1.1/DTD/svg11.dtd"><svg width="100%" height="100%" viewBox="0 0 484 67" version="1.1" xmlns="http://www.w3.org/2000/svg" xmlns:xlink="http://www.w3.org/1999/xlink" xml:space="preserve" xmlns:serif="http://www.serif.com/" style="fill-rule:evenodd;clip-rule:evenodd;stroke-linejoin:round;stroke-miterlimit:2;"><path d="M31.66,4.028l20.045,56.362l-15.314,0l-1.892,-6.593l-15.658,-1.447l-2.667,8.04l-16.174,0l20.131,-57.166l11.529,0.804Zm-7.485,1.608l-3.613,1.286l2.322,2.814l3.614,-1.286l-2.323,-2.814Zm-1.893,6.11l-3.613,1.207l2.323,2.814l3.613,-1.206l-2.323,-2.815Zm-1.893,6.031l-3.527,1.206l2.323,2.814l3.613,-1.206l-2.409,-2.814Zm-12.388,40.443l3.613,-1.207l-2.323,-2.814l-3.613,1.206l2.323,2.815Zm1.893,-6.031l3.527,-1.286l-2.323,-2.814l-3.613,1.286l2.409,2.814Zm1.806,-6.11l3.614,-1.206l-2.323,-2.815l-3.614,1.207l2.323,2.814Zm1.893,-6.031l3.613,-1.206l-2.409,-2.894l-3.527,1.286l2.323,2.814Zm1.893,-6.11l3.527,-1.206l-2.323,-2.814l-3.613,1.206l2.409,2.814Zm1.806,-6.03l3.614,-1.207l-2.323,-2.814l-3.614,1.206l2.323,2.815Zm4.388,13.507l9.205,0l-4.559,-15.437l-4.646,15.437Z" style="fill:#fdf400;fill-rule:nonzero;"/><path d="M72.765,17.133l-0.172,8.764l15.83,-0.723l-0.688,13.91l-15.314,1.125l-0.086,19.136l-4.387,0.322l1.204,-33.046l-0.86,-24.362l22.11,-0.724l0.258,14.392l-17.895,1.206Zm-16.862,-14.472l3.355,-0.081l0.947,57.569l-3.183,0.241l-1.119,-57.729Zm4.99,3.457l3.097,-2.09l3.097,2.09l-3.097,2.091l-3.097,-2.091Zm0,6.272l3.097,-2.091l3.097,2.091l-3.097,2.09l-3.097,-2.09Zm0,6.352l3.097,-2.091l3.097,2.091l-3.097,2.09l-3.097,-2.09Zm0,6.271l3.097,-2.09l3.097,2.09l-3.097,2.09l-3.097,-2.09Zm0,6.352l3.097,-2.091l3.097,2.091l-3.097,2.09l-3.097,-2.09Zm0,6.271l3.097,-2.09l3.097,2.09l-3.097,2.091l-3.097,-2.091Zm0,6.352l3.097,-2.171l3.097,2.171l-3.097,2.091l-3.097,-2.091Zm0,6.272l3.097,-2.091l3.097,2.091l-3.097,2.09l-3.097,-2.09Zm0,6.351l3.097,-2.17l3.097,2.17l-3.097,2.091l-3.097,-2.091Z" style="fill:#fdf400;fill-rule:nonzero;"/><path d="M143.896,25.174c0.746,5.306 0.23,10.586 -1.548,15.839c-1.778,5.253 -4.517,9.622 -8.216,13.106c-3.7,3.484 -7.786,5.521 -12.26,6.111c-6.825,0.857 -12.733,-1.019 -17.722,-5.629c-4.99,-4.609 -8.059,-10.988 -9.206,-19.136c-0.803,-5.36 -0.301,-10.653 1.506,-15.879c1.806,-5.226 4.559,-9.595 8.259,-13.106c3.699,-3.511 7.786,-5.534 12.259,-6.07c6.825,-0.858 12.733,1.005 17.723,5.588c4.99,4.583 8.058,10.975 9.205,19.176Zm-7.054,-0.241c0.458,-0.536 0.63,-1.166 0.516,-1.89c-0.115,-0.724 -0.473,-1.286 -1.076,-1.688c-0.602,-0.402 -1.276,-0.523 -2.021,-0.362c-0.689,0.161 -1.233,0.509 -1.635,1.045c-0.401,0.536 -0.559,1.112 -0.473,1.729c0.086,0.616 0.401,1.125 0.946,1.527c0.545,0.402 1.19,0.577 1.936,0.523c0.746,-0.054 1.348,-0.348 1.807,-0.884Zm-5.42,-11.176c-0.574,0.321 -0.99,0.79 -1.248,1.407c-0.258,0.616 -0.244,1.192 0.043,1.728c0.23,0.536 0.66,0.938 1.291,1.206c0.631,0.268 1.29,0.295 1.978,0.081c0.689,-0.215 1.19,-0.63 1.506,-1.247c0.315,-0.616 0.301,-1.273 -0.043,-1.969c-0.344,-0.697 -0.86,-1.166 -1.549,-1.407c-0.688,-0.242 -1.347,-0.175 -1.978,0.201Zm-5.678,-5.548c-0.345,0.536 -0.459,1.125 -0.345,1.769c0.058,0.321 0.144,0.589 0.258,0.804c0.115,0.214 0.287,0.428 0.517,0.643c0.229,0.161 0.487,0.295 0.774,0.402c0.287,0.053 0.574,0.08 0.86,0.08c0.746,0 1.377,-0.214 1.893,-0.643c0.574,-0.429 0.86,-0.992 0.86,-1.688c0,-0.322 -0.086,-0.644 -0.258,-0.965c-0.172,-0.322 -0.43,-0.617 -0.774,-0.885c-0.23,-0.214 -0.574,-0.402 -1.032,-0.563c-0.402,-0.107 -0.775,-0.134 -1.119,-0.08c-0.745,0.107 -1.29,0.482 -1.634,1.126Zm-7.743,-2.654c-0.459,0.483 -0.574,1.099 -0.344,1.85c0.114,0.536 0.458,1.045 1.032,1.527c0.287,0.161 0.545,0.295 0.774,0.402c0.344,0.108 0.631,0.161 0.861,0.161c0.114,0 0.229,-0.027 0.344,-0.08c0.172,-0.054 0.315,-0.107 0.43,-0.161c0.229,-0.107 0.459,-0.268 0.688,-0.482c0.516,-0.429 0.86,-0.938 1.032,-1.528c0.115,-0.697 -0.057,-1.313 -0.516,-1.849c-0.286,-0.268 -0.602,-0.483 -0.946,-0.644c-0.229,-0.053 -0.43,-0.107 -0.602,-0.16l-0.689,-0c-0.516,0.053 -0.917,0.134 -1.204,0.241c-0.344,0.214 -0.631,0.455 -0.86,0.723Zm-6.969,1.85c-0.688,0.375 -1.118,0.911 -1.29,1.608c-0.115,0.697 0.057,1.313 0.516,1.849c0.401,0.536 0.946,0.858 1.634,0.965c0.689,0.107 1.291,0.027 1.807,-0.241c0.574,-0.322 0.946,-0.791 1.119,-1.407c0.172,-0.617 0.114,-1.233 -0.173,-1.85c-0.286,-0.616 -0.788,-1.018 -1.505,-1.206c-0.717,-0.187 -1.42,-0.094 -2.108,0.282Zm-6.882,5.708c-0.517,0.59 -0.717,1.233 -0.603,1.93c0.115,0.697 0.488,1.233 1.119,1.608c0.631,0.322 1.29,0.429 1.979,0.322c0.688,-0.054 1.204,-0.322 1.548,-0.804c0.402,-0.429 0.574,-0.992 0.516,-1.689c0,-0.643 -0.258,-1.206 -0.774,-1.688c-0.516,-0.483 -1.147,-0.697 -1.893,-0.644c-0.688,0.054 -1.319,0.376 -1.892,0.965Zm-4.474,7.397c-0.287,0.644 -0.287,1.314 0,2.01c0.344,0.59 0.86,0.992 1.549,1.207c0.688,0.16 1.347,0.107 1.978,-0.161c0.631,-0.268 1.061,-0.697 1.291,-1.287c0.229,-0.536 0.215,-1.112 -0.043,-1.728c-0.258,-0.617 -0.703,-1.086 -1.334,-1.407c-0.631,-0.322 -1.29,-0.349 -1.978,-0.081c-0.689,0.268 -1.176,0.751 -1.463,1.447Zm-2.065,8.282c-0.057,0.697 0.172,1.313 0.689,1.849c0.516,0.536 1.147,0.804 1.892,0.804c0.688,-0.053 1.291,-0.295 1.807,-0.723c0.459,-0.429 0.745,-0.938 0.86,-1.528c0,-0.322 -0.057,-0.63 -0.172,-0.925c-0.115,-0.294 -0.258,-0.549 -0.43,-0.764c-0.459,-0.536 -1.032,-0.857 -1.721,-0.964c-0.745,-0.108 -1.376,0.053 -1.892,0.482c-0.287,0.214 -0.517,0.456 -0.689,0.724c-0.172,0.321 -0.286,0.67 -0.344,1.045Zm0.775,8.523c0.172,0.697 0.587,1.219 1.247,1.568c0.66,0.348 1.333,0.402 2.022,0.16c0.688,-0.241 1.19,-0.643 1.505,-1.206c0.316,-0.563 0.416,-1.139 0.301,-1.728c-0.229,-0.644 -0.602,-1.099 -1.118,-1.367c-0.631,-0.375 -1.29,-0.509 -1.979,-0.402c-0.745,0.107 -1.29,0.429 -1.634,0.965c-0.459,0.643 -0.574,1.313 -0.344,2.01Zm7.398,8.442c0.516,-0.375 0.832,-0.911 0.947,-1.608c0.172,-0.59 0.057,-1.152 -0.345,-1.689c-0.286,-0.428 -0.774,-0.75 -1.462,-0.964c-0.688,-0.161 -1.348,-0.081 -1.979,0.241c-0.688,0.321 -1.118,0.804 -1.29,1.447c-0.172,0.643 -0.029,1.287 0.43,1.93c0.401,0.643 0.975,1.018 1.721,1.125c0.745,0.161 1.405,0 1.978,-0.482Zm4.388,6.271c0.745,-0.107 1.319,-0.442 1.72,-1.005c0.402,-0.562 0.56,-1.165 0.474,-1.809c-0.086,-0.643 -0.387,-1.152 -0.904,-1.527c-0.459,-0.429 -1.061,-0.617 -1.806,-0.563c-0.689,0.053 -1.262,0.321 -1.721,0.804c-0.516,0.482 -0.774,1.072 -0.774,1.769c0.057,0.697 0.401,1.286 1.032,1.769c0.631,0.428 1.291,0.616 1.979,0.562Zm8.689,3.056c0.574,-0.429 0.86,-0.992 0.86,-1.689c0,-0.643 -0.229,-1.233 -0.688,-1.769c-0.344,-0.482 -0.789,-0.777 -1.333,-0.884c-0.545,-0.107 -1.104,0 -1.678,0.322c-0.631,0.321 -1.09,0.777 -1.377,1.366c-0.286,0.644 -0.258,1.26 0.087,1.85c0.401,0.643 1.032,1.058 1.892,1.246c0.861,0.188 1.606,0.04 2.237,-0.442Zm-5.936,-13.267c2.122,2.091 4.646,2.962 7.571,2.613c2.925,-0.348 5.348,-2.238 7.269,-5.668c1.922,-3.431 2.596,-7.076 2.022,-10.935c-0.574,-3.913 -1.893,-6.928 -3.957,-9.045c-2.065,-2.118 -4.56,-2.989 -7.485,-2.613c-2.925,0.375 -5.348,2.264 -7.27,5.668c-1.921,3.404 -2.609,7.049 -2.065,10.935c0.545,3.886 1.85,6.901 3.915,9.045Zm13.593,12.141c0.745,-0.429 1.176,-1.018 1.29,-1.769c0.115,-0.697 -0.086,-1.313 -0.602,-1.849c-0.459,-0.429 -1.032,-0.697 -1.721,-0.804c-0.688,-0.107 -1.261,-0.027 -1.72,0.241c-0.459,0.268 -0.774,0.697 -0.947,1.287c-0.229,0.643 -0.229,1.259 0,1.849c0.23,0.697 0.689,1.152 1.377,1.367c0.803,0.214 1.577,0.107 2.323,-0.322Zm6.366,-6.673c0.402,-0.644 0.488,-1.314 0.258,-2.01c-0.229,-0.644 -0.688,-1.099 -1.376,-1.367c-0.631,-0.268 -1.291,-0.295 -1.979,-0.081c-0.631,0.161 -1.118,0.51 -1.463,1.046c-0.286,0.536 -0.344,1.112 -0.172,1.728c0.172,0.617 0.531,1.126 1.076,1.528c0.545,0.402 1.19,0.523 1.936,0.362c0.745,-0.161 1.319,-0.563 1.72,-1.206Zm3.355,-7.799c0.172,-0.697 0.072,-1.34 -0.301,-1.93c-0.373,-0.59 -0.903,-0.938 -1.591,-1.045c-0.517,-0.108 -0.99,-0.094 -1.42,0.04c-0.43,0.134 -0.803,0.348 -1.118,0.643c-0.316,0.295 -0.531,0.63 -0.645,1.005c-0.173,0.59 -0.087,1.179 0.258,1.769c0.344,0.59 0.86,0.992 1.548,1.206c0.688,0.214 1.348,0.161 1.979,-0.161c0.631,-0.321 1.061,-0.831 1.29,-1.527Zm-1.462,-5.87c0.745,0.107 1.391,-0.067 1.936,-0.522c0.544,-0.456 0.846,-1.046 0.903,-1.769c0.057,-0.724 -0.158,-1.34 -0.645,-1.85c-0.488,-0.509 -1.104,-0.763 -1.85,-0.763c-0.688,0.053 -1.291,0.294 -1.807,0.723c-0.516,0.429 -0.803,0.952 -0.86,1.568c-0.057,0.616 0.143,1.179 0.602,1.688c0.459,0.51 1.033,0.818 1.721,0.925Z" style="fill:#fdf400;fill-rule:nonzero;"/><path d="M170.119,25.174c3.383,1.554 6.122,3.578 8.216,6.07c2.093,2.493 3.441,5.039 4.043,7.639c0.602,2.599 0.559,5.239 -0.129,7.919c-0.688,2.68 -1.936,5.039 -3.742,7.076c-1.807,2.037 -4.245,3.671 -7.313,4.904c-3.069,1.233 -6.495,1.769 -10.281,1.608c-0.975,0 -2.38,-0.134 -4.215,-0.402c-0.172,-0.053 -0.402,-0.08 -0.689,-0.08c-0.172,-0.054 -0.286,-0.08 -0.344,-0.08c-1.491,-0.215 -3.126,-0.51 -4.904,-0.885c-1.204,-0.214 -1.835,-0.321 -1.892,-0.321l1.548,-5.87l1.979,-7.156c0.344,0.054 1.018,0.215 2.022,0.483c1.004,0.268 1.792,0.469 2.366,0.603c0.573,0.134 1.362,0.281 2.366,0.442c1.003,0.161 1.821,0.228 2.451,0.201c0.631,-0.027 1.348,-0.107 2.151,-0.241c0.803,-0.134 1.434,-0.389 1.893,-0.764c0.459,-0.375 0.875,-0.885 1.247,-1.528c0.373,-0.643 0.617,-1.447 0.732,-2.412c-0.402,-1.179 -1.176,-2.318 -2.323,-3.417c-1.147,-1.099 -2.395,-2.024 -3.743,-2.774c-1.347,-0.75 -2.767,-1.662 -4.258,-2.734c-1.491,-1.072 -2.839,-2.184 -4.044,-3.336c-1.204,-1.153 -2.193,-2.681 -2.968,-4.583c-0.774,-1.903 -1.132,-4.007 -1.075,-6.312c-0.057,-2.841 0.301,-5.347 1.075,-7.518c0.775,-2.171 1.893,-3.939 3.356,-5.306c1.462,-1.367 3.125,-2.479 4.989,-3.337c1.864,-0.858 3.929,-1.421 6.195,-1.689c2.265,-0.268 4.545,-0.348 6.839,-0.241c2.294,0.107 4.646,0.429 7.055,0.965l-0,1.045l0.258,7.076l0.258,5.789c-3.556,-1.447 -7.227,-1.796 -11.012,-1.045c-3.097,0.696 -4.646,1.929 -4.646,3.698c0,1.93 2.18,4.101 6.539,6.513Zm6.882,9.97c-1.663,-0.375 -3.47,-0.429 -5.42,-0.161c-0.287,1.769 -0.803,3.189 -1.548,4.261c0.802,-0.107 1.577,-0.134 2.322,-0.08c0.172,0.054 0.387,0.094 0.646,0.121c0.258,0.026 0.415,0.067 0.473,0.12c0.287,0.054 0.688,0.188 1.204,0.402c0.402,-0.429 0.66,-0.75 0.774,-0.965c0.058,-0.053 0.173,-0.214 0.345,-0.482c0.172,-0.268 0.286,-0.482 0.344,-0.643c0.344,-0.804 0.631,-1.662 0.86,-2.573Zm-2.925,-29.508c-0.516,-0.643 -1.061,-1.287 -1.635,-1.93c-1.204,1.34 -2.208,2.68 -3.011,4.02c1.09,1.072 2.151,2.278 3.183,3.618c0.402,-0.589 0.861,-1.206 1.377,-1.849c0.401,-0.536 0.918,-1.179 1.549,-1.93c-0.517,-0.75 -1.004,-1.393 -1.463,-1.929Zm-12.647,1.769c-1.089,-0.268 -1.978,-0.429 -2.667,-0.483c-0.057,1.019 -0.057,1.876 0,2.573c0.058,0.483 0.144,0.911 0.258,1.287c0.058,0.375 0.173,0.75 0.345,1.125c0.401,0 0.803,0.027 1.204,0.081c0.402,0.053 0.803,0.107 1.204,0.16c0.689,0.108 1.463,0.322 2.323,0.644c-0.172,-0.536 -0.286,-1.287 -0.344,-2.252c0,-0.536 0.029,-1.152 0.086,-1.849c1.377,0.751 2.696,1.662 3.958,2.734c0.401,-1.394 1.032,-2.814 1.892,-4.262c-1.319,-1.179 -2.695,-2.224 -4.129,-3.135c-0.688,1.393 -1.233,2.814 -1.635,4.261l0,-0.08c-0.688,-0.268 -1.52,-0.536 -2.495,-0.804Zm-4.731,4.824c-1.147,0.321 -2.036,0.67 -2.667,1.045c0.229,0.375 0.458,0.777 0.688,1.206c0.229,0.375 0.516,0.724 0.86,1.045c0.402,0.536 1.033,1.126 1.893,1.769c0.803,-0.589 1.52,-0.965 2.151,-1.125c0.344,-0.161 0.717,-0.268 1.118,-0.322c0.344,-0.107 0.717,-0.161 1.119,-0.161c-0.459,-0.375 -0.976,-0.938 -1.549,-1.688c-0.459,-0.751 -0.803,-1.448 -1.032,-2.091c-0.631,0 -1.492,0.107 -2.581,0.322Zm-1.549,9.487c0.287,0.108 2.18,0.697 2.581,0.804c0.459,0.054 0.889,0.134 1.29,0.242c0.173,-0.376 0.345,-0.724 0.517,-1.046c0.229,-0.321 0.487,-0.643 0.774,-0.964c0.287,-0.429 0.516,-0.724 0.688,-0.885c0.287,-0.321 0.574,-0.589 0.861,-0.804c-1.606,-0.321 -3.069,-0.911 -4.388,-1.769c-1.434,0.965 -2.638,2.225 -3.613,3.779c0.401,0.215 0.831,0.429 1.29,0.643Zm2.065,5.709c1.548,0.107 3.298,0.107 5.248,0c0.401,-1.769 0.889,-3.27 1.462,-4.502c-0.803,0.053 -1.606,0.08 -2.409,0.08c-0.401,-0.054 -0.831,-0.08 -1.29,-0.08c-0.402,-0.054 -0.803,-0.108 -1.205,-0.161c-0.229,0.321 -0.43,0.67 -0.602,1.045c-0.172,0.429 -0.315,0.831 -0.43,1.206c-0.344,0.804 -0.602,1.608 -0.774,2.412Zm4.559,4.824c1.549,-0.161 3.241,-0.455 5.076,-0.884c0.115,-1.769 0.316,-3.323 0.603,-4.664c-1.549,0.322 -3.212,0.563 -4.99,0.724c-0.344,1.608 -0.574,3.216 -0.689,4.824Zm4.904,3.86c2.122,-0.59 3.757,-0.965 4.904,-1.126c0.172,-1.072 0.258,-2.707 0.258,-4.905c-0.631,0.161 -1.505,0.389 -2.624,0.684c-1.118,0.295 -1.907,0.496 -2.366,0.603l0,1.608c0,0.268 -0.086,1.327 -0.086,1.568l0,0.804c0,0.295 -0.028,0.549 -0.086,0.764Zm-9.979,22.111c0.86,-1.233 1.606,-2.493 2.236,-3.779c-1.261,-1.072 -2.408,-2.225 -3.441,-3.458c-0.745,1.447 -1.606,2.788 -2.581,4.02c0.746,1.019 1.664,2.037 2.753,3.056c0.402,0.053 0.746,0.107 1.033,0.161Zm6.452,-0.885c0.746,-1.608 1.29,-3.162 1.635,-4.663c-1.434,-0.751 -2.811,-1.635 -4.13,-2.654c-0.401,1.501 -0.975,2.975 -1.721,4.423c1.262,1.072 2.667,2.036 4.216,2.894Zm6.452,-2.573c0.344,-1.822 0.488,-3.484 0.431,-4.985c-1.549,-0.321 -3.098,-0.884 -4.646,-1.688c-0,1.554 -0.201,3.082 -0.602,4.583c1.491,0.804 3.097,1.501 4.817,2.09Zm0.431,-4.985c1.72,0.429 3.498,0.59 5.333,0.483c-0.229,-1.823 -0.745,-3.458 -1.548,-4.905c-1.606,0.322 -3.212,0.322 -4.818,0c0.574,1.286 0.918,2.761 1.033,4.422Zm3.785,-4.422c1.835,-0.322 3.47,-1.045 4.904,-2.171c-1.147,-1.501 -2.495,-2.626 -4.044,-3.377c-1.204,1.126 -2.552,1.903 -4.043,2.332c1.262,0.75 2.323,1.822 3.183,3.216Z" style="fill:#fdf400;fill-rule:nonzero;"/><path d="M203.482,11.827c-3.614,-0.429 -8.432,-0.536 -14.454,-0.322l-0.086,-1.769l7.657,-0.08c7.972,0.322 14.224,0.804 18.755,1.447c2.696,0.375 5.047,-0.107 7.054,-1.447l0,3.699l-4.043,-0c-2.581,-0.108 -5.936,-0.429 -10.066,-0.965c-2.064,-0.268 -3.67,-0.456 -4.817,-0.563Zm-10.926,-3.699l-3.356,-3.216l-0.43,0.402l-0.086,0l-0.086,-2.251l33.724,-1.126l0,4.503l-0.516,-0.402l-3.355,2.975l-2.237,-3.216l-4.043,3.216l-3.7,-2.975l-3.355,2.573l-2.581,-3.216l-3.355,3.216l-2.925,-3.458l-3.699,2.975Zm31.315,51.137l-0.086,-0l-0,0.161l-33.036,0.964l-0.516,0l-0.172,-6.03l0.086,0.081l-1.119,-41.328c6.08,-0.214 10.582,-0.16 13.507,0.161c1.09,0.107 2.638,0.295 4.646,0.563c5.219,0.697 9.664,1.045 13.335,1.045l1.892,0l0,1.287l-16.087,1.206l-0.259,8.764l17.293,-1.046l-0.774,12.463l-16.605,1.286l-0.086,7.719l17.207,-0.482l0.774,13.186Z" style="fill:#fdf400;fill-rule:nonzero;"/><path d="M247.34,32.249c0,4.664 1.205,8.242 3.614,10.734c2.409,2.493 5.491,3.739 9.248,3.739c3.757,-0 6.352,-0.429 7.786,-1.287l-0.43,12.141c-3.327,1.876 -7.284,2.814 -11.873,2.814c-3.613,0 -7.011,-0.643 -10.194,-1.929c-3.183,-1.287 -5.98,-3.136 -8.388,-5.548c-2.409,-2.412 -4.302,-5.481 -5.678,-9.206c-1.377,-3.726 -2.065,-7.866 -2.065,-12.423c-0,-4.556 0.788,-8.79 2.366,-12.703c1.577,-3.913 3.699,-7.17 6.366,-9.769c2.667,-2.6 5.764,-4.623 9.291,-6.071c3.528,-1.447 7.213,-2.171 11.055,-2.171c3.843,0 7.084,0.51 9.722,1.528l1.032,15.116c-2.581,-0.965 -5.305,-1.447 -8.173,-1.447c-3.9,-0 -7.155,1.447 -9.764,4.341c-2.61,2.895 -3.915,6.942 -3.915,12.141Zm-13.765,1.046c0.115,-0 0.287,0.04 0.517,0.12c0.229,0.081 0.645,0.268 1.247,0.563c0.602,0.295 1.147,0.657 1.635,1.085c0.487,0.429 0.946,1.046 1.376,1.85c0.43,0.804 0.674,1.715 0.731,2.733c0.689,-4.556 2.467,-6.914 5.334,-7.075c-0.401,-0.054 -0.874,-0.174 -1.419,-0.362c-0.545,-0.188 -1.334,-0.858 -2.366,-2.01c-1.032,-1.152 -1.606,-2.64 -1.721,-4.462c-0.057,0.053 -0.086,0.12 -0.086,0.201c0,0.08 -0.014,0.254 -0.043,0.522c-0.028,0.268 -0.086,0.536 -0.172,0.804c-0.086,0.268 -0.186,0.59 -0.301,0.965c-0.115,0.375 -0.258,0.737 -0.43,1.086c-0.172,0.348 -0.402,0.723 -0.688,1.125c-0.287,0.402 -0.588,0.777 -0.904,1.126c-0.315,0.348 -0.717,0.67 -1.204,0.965c-0.488,0.295 -0.989,0.549 -1.506,0.764Zm8.173,15.839c0.058,-0.107 0.101,-0.241 0.129,-0.402c0.029,-0.161 0.115,-0.456 0.258,-0.884c0.144,-0.429 0.316,-0.818 0.517,-1.166c0.2,-0.349 0.473,-0.67 0.817,-0.965c0.344,-0.295 0.746,-0.442 1.204,-0.442c-0.057,-0 -0.157,-0.014 -0.301,-0.041c-0.143,-0.026 -0.373,-0.134 -0.688,-0.321c-0.315,-0.188 -0.602,-0.402 -0.86,-0.643c-0.258,-0.242 -0.502,-0.603 -0.732,-1.086c-0.229,-0.482 -0.372,-1.045 -0.43,-1.688c0,0.107 -0.014,0.227 -0.043,0.361c-0.028,0.134 -0.1,0.402 -0.215,0.804c-0.115,0.403 -0.258,0.778 -0.43,1.126c-0.172,0.349 -0.459,0.697 -0.86,1.045c-0.402,0.349 -0.861,0.63 -1.377,0.845c0.172,0.053 0.416,0.134 0.731,0.241c0.316,0.107 0.76,0.455 1.334,1.045c0.573,0.59 0.889,1.313 0.946,2.171Zm0,-25.649c0,-0.053 0.015,-0.134 0.043,-0.241c0.029,-0.107 0.072,-0.281 0.129,-0.522c0.058,-0.242 0.144,-0.483 0.258,-0.724c0.115,-0.241 0.244,-0.509 0.388,-0.804c0.143,-0.295 0.315,-0.563 0.516,-0.804c0.201,-0.241 0.444,-0.429 0.731,-0.563c0.287,-0.134 0.574,-0.228 0.86,-0.281c-0.057,-0 -0.157,-0.014 -0.301,-0.041c-0.143,-0.026 -0.373,-0.12 -0.688,-0.281c-0.315,-0.161 -0.602,-0.362 -0.86,-0.603c-0.258,-0.241 -0.502,-0.616 -0.732,-1.126c-0.229,-0.509 -0.372,-1.058 -0.43,-1.648c0,0.054 -0.014,0.161 -0.043,0.322c-0.028,0.16 -0.1,0.428 -0.215,0.804c-0.115,0.375 -0.258,0.737 -0.43,1.085c-0.172,0.349 -0.459,0.71 -0.86,1.086c-0.402,0.375 -0.861,0.643 -1.377,0.804c0.172,0.053 0.416,0.134 0.731,0.241c0.316,0.107 0.76,0.455 1.334,1.045c0.573,0.59 0.889,1.34 0.946,2.251Z" style="fill:#fdf400;fill-rule:nonzero;"/><path d="M308.368,50.278c0.692,-1.878 1.703,-3.623 2.989,-5.158c1.698,-2.08 3.588,-3.996 5.645,-5.722c1.958,-1.672 3.921,-3.323 5.888,-4.953c1.967,-1.63 3.927,-3.268 5.882,-4.915c1.771,-1.687 3.281,-3.628 4.48,-5.76c0.951,-1.7 1.465,-3.609 1.497,-5.556c0.041,-2.255 -0.377,-4.496 -1.229,-6.585c-0.813,-1.9 -2.079,-3.572 -3.686,-4.871c-1.606,-1.278 -3.448,-2.228 -5.421,-2.796c-2.329,-0.66 -4.741,-0.976 -7.161,-0.941c-1.979,-0.015 -3.952,0.213 -5.876,0.678c-1.779,0.437 -3.474,1.164 -5.017,2.151c-1.603,0.976 -2.945,2.326 -3.911,3.936c-0.888,1.558 -1.341,3.326 -1.312,5.12c-0.08,2.263 0.802,4.457 2.426,6.035c1.707,1.602 3.991,2.449 6.33,2.349c0.95,0.004 1.897,-0.104 2.822,-0.32c0.851,-0.205 1.666,-0.535 2.419,-0.98c0.802,-0.444 1.48,-1.082 1.971,-1.856c0.437,-0.739 0.659,-1.586 0.64,-2.444c0.044,-1.07 -0.309,-2.119 -0.992,-2.944c-0.792,-0.868 -1.834,-1.47 -2.982,-1.722c0.127,0.324 0.236,0.656 0.326,0.992c0.074,0.293 0.113,0.594 0.116,0.896c0.069,0.926 -0.273,1.838 -0.935,2.49c-0.802,0.612 -1.803,0.908 -2.809,0.832c-0.564,0.006 -1.121,-0.128 -1.62,-0.391c-0.532,-0.305 -0.974,-0.747 -1.28,-1.28c-0.271,-0.472 -0.486,-0.975 -0.64,-1.497c-0.171,-0.558 -0.257,-1.139 -0.256,-1.722c-0.019,-1.111 0.234,-2.209 0.736,-3.2c0.523,-0.972 1.28,-1.8 2.202,-2.406c0.882,-0.595 1.855,-1.043 2.88,-1.325c1.179,-0.316 2.396,-0.469 3.616,-0.455c0.975,-0.009 1.945,0.149 2.867,0.468c0.87,0.307 1.678,0.766 2.387,1.356c0.747,0.584 1.358,1.322 1.792,2.164c0.397,0.794 0.603,1.671 0.602,2.56c-0.066,2.767 -0.785,5.48 -2.099,7.916c-1.692,3.161 -3.823,6.065 -6.33,8.628c-2.236,2.368 -4.181,4.61 -5.837,6.726c-1.504,1.891 -2.873,3.887 -4.096,5.971c-1.276,2.251 -2.359,4.606 -3.238,7.04c-0.93,2.583 -1.66,5.234 -2.182,7.93l38.144,2.31l-2.407,-13.645l-27.341,4.896Zm19.162,-36.409c0.497,-0.433 1.147,-0.65 1.805,-0.602c0.675,-0.05 1.344,0.166 1.862,0.602c0.445,0.453 0.678,1.074 0.64,1.709c0.057,0.652 -0.178,1.296 -0.64,1.76c-0.533,0.404 -1.195,0.6 -1.862,0.55c-0.649,0.049 -1.294,-0.148 -1.805,-0.55c-0.458,-0.467 -0.691,-1.109 -0.64,-1.76c-0.032,-0.634 0.199,-1.253 0.64,-1.709Zm-2.643,6.918c1.24,-1.161 3.194,-1.161 4.435,0c0.576,0.554 0.902,1.319 0.902,2.119c0,0.799 -0.326,1.564 -0.902,2.118c-1.241,1.162 -3.195,1.162 -4.435,-0c-0.599,-0.541 -0.942,-1.311 -0.942,-2.118c0,-0.807 0.343,-1.578 0.942,-2.119Zm-4.717,6.349c0.497,-0.418 1.138,-0.627 1.786,-0.582c0.678,-0.056 1.353,0.153 1.881,0.582c0.451,0.471 0.683,1.11 0.64,1.76c0.046,0.645 -0.187,1.279 -0.64,1.741c-0.532,0.422 -1.205,0.626 -1.881,0.569c-0.646,0.043 -1.284,-0.161 -1.786,-0.569c-0.457,-0.459 -0.691,-1.096 -0.64,-1.741c-0.048,-0.651 0.185,-1.292 0.64,-1.76Z" style="fill:#fdf400;fill-rule:nonzero;"/><path d="M381.693,13.05c-1.721,-2.987 -4.136,-5.516 -7.04,-7.373c-5.519,-3.263 -12.401,-3.263 -17.92,-0c-2.895,1.868 -5.307,4.394 -7.04,7.373c-6.965,11.315 -6.965,25.645 0,36.96c1.728,2.975 4.142,5.494 7.04,7.347c5.531,3.219 12.389,3.219 17.92,-0c2.907,-1.842 5.324,-4.364 7.04,-7.347c1.681,-2.735 2.973,-5.69 3.84,-8.781c1.732,-6.348 1.732,-13.045 0,-19.392c-0.864,-3.094 -2.157,-6.052 -3.84,-8.787Zm-1.024,25.068c-0.262,1.562 -0.638,3.102 -1.126,4.608l-5.088,-3.161l-2.49,2.477l6.01,4.48c-0.718,1.362 -1.609,2.627 -2.65,3.763c-0.901,0.98 -1.953,1.81 -3.117,2.457l-1.126,-5.024l-3.757,0.461l0.64,5.632c-1.838,-0.005 -3.63,-0.587 -5.12,-1.664c-1.781,-1.328 -3.253,-3.027 -4.313,-4.979l3.308,-2.31l-1.465,-2.669l-3.379,1.824c-0.467,-1.219 -0.86,-2.465 -1.178,-3.731c-0.305,-1.203 -0.519,-2.427 -0.64,-3.661l4.742,-1.6l-1.395,-3.155l-3.654,1.004c-0,-0.928 0.038,-1.888 0.121,-2.88c0.084,-0.992 0.199,-2.003 0.359,-3.046l4.057,1.338l0.96,-2.964l-4.358,-1.651c0.586,-2.266 1.493,-4.436 2.694,-6.445c1.032,-1.713 2.402,-3.198 4.026,-4.364l0.576,5.67l3.411,-0.851l-0.467,-6.477c0.243,-0.077 0.495,-0.12 0.749,-0.128c0.32,-0.026 0.672,-0.038 1.056,-0.038c1.474,-0.008 2.926,0.363 4.217,1.075c1.406,0.804 2.64,1.879 3.629,3.161l-4.64,3.904l1.92,2.477l4.781,-3.123c0.832,1.602 1.488,3.288 1.958,5.03c0.516,1.86 0.868,3.762 1.05,5.684l-3.84,0.256l0.346,3.321l3.648,0.231c-0.025,1.698 -0.176,3.393 -0.455,5.068Z" style="fill:#fdf400;fill-rule:nonzero;"/><path d="M368.503,26.061c-1.192,-0.004 -2.34,0.455 -3.2,1.28c-0.866,0.748 -1.364,1.838 -1.364,2.982c-0,1.145 0.498,2.234 1.364,2.983c0.86,0.825 2.008,1.284 3.2,1.28c1.16,0.007 2.275,-0.455 3.091,-1.28c0.835,-0.763 1.311,-1.843 1.311,-2.973c0,-1.131 -0.476,-2.211 -1.311,-2.973c-0.815,-0.828 -1.929,-1.296 -3.091,-1.299Z" style="fill:#fdf400;fill-rule:nonzero;"/><path d="M401.514,50.278c0.687,-1.879 1.696,-3.625 2.982,-5.158c1.701,-2.077 3.591,-3.993 5.645,-5.722c1.959,-1.672 3.921,-3.323 5.888,-4.953c1.967,-1.63 3.93,-3.268 5.888,-4.915c1.774,-1.685 3.284,-3.627 4.48,-5.76c0.953,-1.699 1.47,-3.608 1.504,-5.556c0.041,-2.255 -0.377,-4.496 -1.229,-6.585c-0.817,-1.901 -2.087,-3.573 -3.699,-4.871c-1.605,-1.279 -3.447,-2.23 -5.421,-2.796c-2.321,-0.666 -4.727,-0.992 -7.142,-0.967c-1.979,-0.014 -3.952,0.214 -5.875,0.679c-1.774,0.439 -3.465,1.165 -5.005,2.15c-1.601,0.976 -2.941,2.327 -3.904,3.936c-0.89,1.558 -1.345,3.326 -1.318,5.12c-0.078,2.264 0.806,4.458 2.432,6.035c1.704,1.602 3.986,2.449 6.323,2.349c0.95,0.004 1.897,-0.103 2.822,-0.32c0.851,-0.203 1.667,-0.533 2.419,-0.979c0.802,-0.444 1.48,-1.083 1.972,-1.856c0.436,-0.74 0.658,-1.586 0.64,-2.445c0.042,-1.071 -0.314,-2.12 -0.999,-2.944c-0.806,-0.858 -1.86,-1.444 -3.014,-1.677c0.13,0.324 0.239,0.655 0.326,0.992c0.076,0.293 0.117,0.594 0.122,0.896c0.07,0.928 -0.275,1.841 -0.941,2.49c-0.802,0.613 -1.803,0.91 -2.81,0.832c-0.561,0.007 -1.116,-0.127 -1.612,-0.391c-0.534,-0.304 -0.976,-0.746 -1.28,-1.28c-0.272,-0.472 -0.487,-0.974 -0.64,-1.497c-0.175,-0.557 -0.261,-1.138 -0.256,-1.722c-0.022,-1.11 0.229,-2.209 0.729,-3.2c0.52,-0.972 1.272,-1.8 2.189,-2.413c0.898,-0.605 1.891,-1.057 2.938,-1.337c1.178,-0.317 2.395,-0.47 3.616,-0.455c0.975,-0.009 1.945,0.149 2.867,0.468c0.869,0.308 1.677,0.768 2.387,1.356c0.743,0.587 1.353,1.325 1.792,2.164c0.395,0.795 0.599,1.672 0.595,2.56c-0.062,2.767 -0.782,5.481 -2.099,7.916c-1.692,3.17 -3.825,6.083 -6.336,8.653c-2.227,2.368 -4.173,4.61 -5.837,6.727c-1.502,1.891 -2.869,3.886 -4.089,5.971c-1.282,2.249 -2.367,4.605 -3.245,7.04c-0.933,2.587 -1.665,5.242 -2.189,7.942l38.144,2.311l-2.4,-13.645l-27.36,4.857Zm19.136,-36.409c0.499,-0.434 1.152,-0.651 1.811,-0.602c0.674,-0.052 1.341,0.164 1.856,0.602c0.445,0.453 0.677,1.075 0.64,1.709c0.057,0.652 -0.178,1.296 -0.64,1.76c-0.53,0.404 -1.191,0.6 -1.856,0.55c-0.651,0.05 -1.298,-0.147 -1.811,-0.55c-0.458,-0.467 -0.691,-1.109 -0.64,-1.76c-0.032,-0.634 0.199,-1.253 0.64,-1.709Zm-2.624,6.918c0.59,-0.569 1.381,-0.884 2.202,-0.877c0.831,-0.019 1.637,0.297 2.233,0.877c0.576,0.554 0.903,1.319 0.903,2.119c-0,0.799 -0.327,1.564 -0.903,2.118c-0.596,0.58 -1.402,0.896 -2.233,0.877c-0.821,0.007 -1.612,-0.308 -2.202,-0.877c-0.599,-0.541 -0.941,-1.311 -0.941,-2.118c-0,-0.807 0.342,-1.578 0.941,-2.119Zm-4.742,6.349c0.501,-0.415 1.142,-0.623 1.792,-0.582c0.676,-0.055 1.348,0.154 1.875,0.582c0.45,0.471 0.683,1.11 0.64,1.76c0.045,0.645 -0.188,1.279 -0.64,1.741c-0.53,0.421 -1.201,0.625 -1.875,0.569c-0.648,0.045 -1.289,-0.159 -1.792,-0.569c-0.457,-0.459 -0.691,-1.096 -0.64,-1.741c-0.048,-0.651 0.185,-1.292 0.64,-1.76Z" style="fill:#fdf400;fill-rule:nonzero;"/><path d="M482.404,35.13l-9.824,-0.16l-5.05,-0.032l-0,-0.064l-3.584,-0.064l-0.173,-8.89l-5.453,1.267l0.34,7.52l-6.996,-0.064l6.72,-33.587l-6.086,-1.056l-9.306,25.645l3.988,1.305l-1.056,3.028l-3.988,-1.434l-1.158,3.258l4.634,1.497l-0.852,2.995l-4.876,-1.497l-1.159,3.251l4.807,1.562l-1.229,2.636l-4.602,-1.395l-1.395,3.84l11.347,3.597l11.648,-2.701l0.851,20.711l4.813,-1.274l-0.473,-20.576l3.238,-0.685l4.71,-1.171l11.328,-2.477l-1.164,-4.985Z" style="fill:#fdf400;fill-rule:nonzero;"/></svg>