<?xml version="1.0" encoding="UTF-8" standalone="no"?><!DOCTYPE svg PUBLIC "-//W3C//DTD SVG 1.1//EN" "http://www.w3.org/Graphics/SVG/1.1/DTD/svg11.dtd"><svg width="100%" height="100%" viewBox="0 0 568 571" version="1.1" xmlns="http://www.w3.org/2000/svg" xmlns:xlink="http://www.w3.org/1999/xlink" xml:space="preserve" xmlns:serif="http://www.serif.com/" style="fill-rule:evenodd;clip-rule:evenodd;stroke-linejoin:round;stroke-miterlimit:2;"><path d="M461.92,62.365c63.91,56.392 98.862,121.621 105.355,207.357c1.832,76.144 -18.005,147.139 -70.199,203.58c-7.406,7.643 -14.978,15.019 -22.656,22.396c-2.525,2.557 -5.049,5.113 -7.65,7.748c-20.579,19.475 -46.015,30.512 -71.517,42.252c-4.222,2.006 -4.222,2.006 -8.529,4.053c-58.013,26.478 -135.25,26.213 -195.1,5.615c-79.639,-33.605 -136.876,-84.064 -171.371,-163.834c-24.112,-60.657 -28.579,-147.42 -3.092,-208.366c36.867,-77.016 89.33,-134.56 169.759,-166.634c19.287,-5.336 38.59,-9.276 58.333,-12.5c4.888,-0.817 9.775,-1.633 14.811,-2.474c71.347,-8.413 145.555,18.019 201.856,60.807Z" style="fill:#fff;fill-rule:nonzero;"/><path d="M369.211,148.302c15.271,-0.028 23.322,4.402 35.938,12.761c11.847,7.402 16.863,9.925 30.908,8.235c10.333,-3.177 20.156,-6.71 30.029,-11.1c-1.933,4.77 -1.933,4.77 -3.906,9.636c-3.089,7.814 -5.936,15.726 -8.594,23.698c10.313,-2.063 10.313,-2.063 20.834,-4.167c-4.755,11.671 -8.945,17.191 -18.685,25.553c-12.889,14.691 -14.787,27.342 -16.992,46.061c-9.508,64.009 -36.964,115.228 -88.916,155.339c-8.246,5.531 -16.57,10.19 -25.407,14.714c-2.992,1.638 -5.984,3.276 -9.066,4.964c-47.053,21.537 -116.788,19.462 -165.348,3.092c-13.486,-5.881 -25.714,-12.583 -38.086,-20.556c11.507,-3.181 22.221,-4.711 34.114,-5.469c21.318,-2.153 38.603,-9.917 57.552,-19.531c4.125,-2.063 4.125,-2.063 8.334,-4.167c-2.165,-0.962 -4.329,-1.923 -6.559,-2.914c-19.223,-8.989 -34.042,-17.731 -47.608,-34.586c-3.385,-11.719 -3.385,-11.719 -4.167,-20.833c6.188,-2.063 6.188,-2.063 12.5,-4.167c-1.96,-1.466 -3.92,-2.933 -5.94,-4.444c-18.956,-15.031 -28.434,-26.558 -35.726,-49.723l-0,-16.666c8.25,1.375 16.5,2.75 25,4.166c-1.891,-1.719 -3.781,-3.437 -5.729,-5.208c-14.896,-16.041 -16.333,-29.951 -16.407,-51.563c-0.104,-7.17 -0.104,-7.17 -0.211,-14.485c0.499,-3.986 0.999,-7.971 1.513,-12.077c4.125,-2.75 8.25,-5.5 12.5,-8.333c2.031,2.067 4.061,4.135 6.153,6.266c40.959,39.246 88.412,59.065 143.847,68.734c-0.193,-2.369 -0.386,-4.738 -0.586,-7.178c-1.135,-24.299 1.809,-40.386 17.253,-59.489c19.135,-20.236 34.596,-23.876 61.458,-26.563Z" style="fill-rule:nonzero;"/></svg>