<svg width="48" height="48" viewBox="0 0 48 48" fill="none" xmlns="http://www.w3.org/2000/svg">
<path id="Vector" d="M6.91223 40.1904V40.6904H7.41223H14.631H15.131V40.1904V18.5029V18.0029H14.631H7.41223H6.91223V18.5029V40.1904ZM15.5997 11.8154H15.5998L15.5996 11.8058C15.5765 10.6003 15.1535 9.57593 14.3231 8.76929C13.4834 7.95354 12.3807 7.56543 11.0685 7.56543C9.75568 7.56543 8.64245 7.95362 7.77455 8.76207C6.90784 9.56942 6.47473 10.6 6.47473 11.8154C6.47473 13.0084 6.89594 14.0298 7.73564 14.8459C8.58276 15.6691 9.67837 16.0654 10.9747 16.0654H11.006C12.3388 16.0654 13.4608 15.6723 14.3207 14.8483C15.1716 14.0328 15.5997 13.0107 15.5997 11.8154ZM32.881 40.1904V40.6904H33.381H40.5997H41.0997V40.1904V27.7529C41.0997 24.4728 40.3226 21.9038 38.6857 20.1323C37.0587 18.3717 34.9088 17.5029 32.2872 17.5029C29.845 17.5029 27.846 18.3661 26.3185 20.0717V18.5029V18.0029H25.8185H18.5997H18.0765L18.1002 18.5256C18.162 19.8842 18.1623 27.094 18.0997 40.188L18.0973 40.6904H18.5997H25.8185H26.3185V40.1904V28.0654C26.3185 27.2944 26.3912 26.7904 26.5004 26.5041C26.7805 25.8539 27.1984 25.3017 27.7597 24.8433C28.2834 24.4156 28.938 24.1904 29.756 24.1904C30.8395 24.1904 31.5811 24.5489 32.0726 25.2141C32.585 25.9076 32.881 27.0082 32.881 28.5967V40.1904ZM47.506 9.00293V39.0029C47.506 41.3489 46.6789 43.3417 45.0118 45.0088C43.3447 46.6758 41.3519 47.5029 39.006 47.5029H9.00598C6.66005 47.5029 4.66725 46.6758 3.00016 45.0088C1.33307 43.3417 0.505981 41.3489 0.505981 39.0029V9.00293C0.505981 6.657 1.33307 4.6642 3.00016 2.99711C4.66725 1.33002 6.66005 0.50293 9.00598 0.50293H39.006C41.3519 0.50293 43.3447 1.33002 45.0118 2.99711C46.6789 4.6642 47.506 6.657 47.506 9.00293Z" stroke="white"/>
</svg>
