<?xml version="1.0" encoding="UTF-8" standalone="no"?><!DOCTYPE svg PUBLIC "-//W3C//DTD SVG 1.1//EN" "http://www.w3.org/Graphics/SVG/1.1/DTD/svg11.dtd"><svg width="100%" height="100%" viewBox="0 0 567 568" version="1.1" xmlns="http://www.w3.org/2000/svg" xmlns:xlink="http://www.w3.org/1999/xlink" xml:space="preserve" xmlns:serif="http://www.serif.com/" style="fill-rule:evenodd;clip-rule:evenodd;stroke-linejoin:round;stroke-miterlimit:2;"><path d="M460.016,61.88c66.561,57.503 98.804,127.16 106.153,213.9c2.881,75.465 -25.656,146.48 -76.237,202.067c-28.898,30.053 -57.678,50.07 -95.834,66.666c-4.812,2.407 -9.625,4.813 -14.583,7.292c-74.761,26.701 -156.904,18.337 -227.865,-14.323c-35.003,-18.484 -67.886,-43.786 -90.885,-76.302l0,-8.333l-8.333,-0c-49.934,-65.279 -59.063,-148.218 -48.548,-227.639c4.102,-23.204 11.107,-43.18 21.985,-64.028c1.47,-2.86 2.939,-5.72 4.453,-8.667c34.555,-65.258 89.615,-113.537 159.349,-138.468c96.032,-28.935 190.887,-13.244 270.345,47.835Z" style="fill:#fff;fill-rule:nonzero;"/><path d="M415.713,145.295c36.983,33.888 55.865,82.153 58.333,131.51c-0.901,52.499 -21.37,95.33 -57.405,132.959c-33.741,31.041 -77.112,48.869 -122.803,48.812c-3.132,0.02 -6.264,0.041 -9.491,0.062c-20.13,-0.302 -35.476,-3.595 -54.311,-11.26c-34.247,-12.56 -65.807,0.465 -98.944,11.625c-7.827,2.177 -7.827,2.177 -20.327,2.177c1.105,-6.601 2.24,-13.197 3.385,-19.792c0.726,-4.184 1.451,-8.368 2.198,-12.679c2.724,-13.234 6.565,-25.726 10.563,-38.623c5.993,-22.844 3.093,-36.172 -7.487,-57.015c-18.11,-37.859 -10.258,-83.705 2.799,-121.744c18.343,-44.537 52.07,-79.352 95.573,-100.147c69.869,-28.357 140.661,-12.147 197.917,34.115Z" style="fill:#fff;fill-rule:nonzero;"/><path d="M415.713,145.295c36.983,33.888 55.865,82.153 58.333,131.51c-0.901,52.499 -21.37,95.33 -57.405,132.959c-33.741,31.041 -77.112,48.869 -122.803,48.812c-3.132,0.02 -6.264,0.041 -9.491,0.062c-20.13,-0.302 -35.476,-3.595 -54.311,-11.26c-34.247,-12.56 -65.807,0.465 -98.944,11.625c-7.827,2.177 -7.827,2.177 -20.327,2.177c1.105,-6.601 2.24,-13.197 3.385,-19.792c0.726,-4.184 1.451,-8.368 2.198,-12.679c2.724,-13.234 6.565,-25.726 10.563,-38.623c5.993,-22.844 3.093,-36.172 -7.487,-57.015c-18.11,-37.859 -10.258,-83.705 2.799,-121.744c18.343,-44.537 52.07,-79.352 95.573,-100.147c69.869,-28.357 140.661,-12.147 197.917,34.115Zm-244.32,43.375c-22.86,35.414 -32.41,76.506 -27.295,118.343c4.672,12.901 4.672,12.901 10.677,25.521c10.512,22.829 11.831,37.826 5.99,61.979c-1.398,6.943 -2.789,13.887 -4.167,20.834c4.15,-0.903 4.15,-0.903 8.383,-1.823c3.679,-0.774 7.358,-1.547 11.149,-2.344c3.625,-0.773 7.251,-1.547 10.986,-2.344c19.932,-3.259 32.375,-2.522 50.472,6.511c35.389,14.82 77.201,13.312 113.265,0.716c36.245,-17.855 64.415,-46.368 79.964,-83.529c10.196,-34.102 11.976,-80.084 -1.823,-113.281c-4.561,-8.477 -4.561,-8.477 -9.896,-16.406c-2.65,-4.335 -2.65,-4.335 -5.354,-8.757c-15.112,-22.478 -33.797,-36.247 -57.146,-49.577c-2.61,-1.514 -5.22,-3.029 -7.91,-4.589c-63.064,-26.961 -135.799,-3.235 -177.295,48.746Z" style="fill-rule:nonzero;"/><path d="M244.098,194.513c3.738,6.459 7.362,12.983 10.938,19.532c2.03,3.625 4.06,7.251 6.152,10.986c3.744,11.149 3.744,11.149 0.358,22.217c-1.633,3.222 -3.265,6.445 -4.948,9.765c-1.536,6.914 -2.97,13.854 -4.166,20.834l8.333,-0c5.257,5.941 5.257,5.941 11.198,13.802c12.84,15.661 23.953,21.399 42.969,27.864c5.5,-6.875 11,-13.75 16.666,-20.833c18.287,2.771 33.255,9.115 50,16.667c1.563,13.281 1.563,13.281 0,29.166c-12.414,14.961 -22.179,22.101 -41.666,23.959c-39.774,-2.423 -79.773,-28.619 -105.762,-57.341c-22.75,-27.97 -33.526,-48.014 -33.187,-84.635c1.449,-11.149 1.449,-11.149 10.563,-24.43c12.832,-8.27 17.81,-8.271 32.552,-7.553Z" style="fill:#190000;fill-rule:nonzero;"/></svg>