<?xml version="1.0" encoding="UTF-8" standalone="no"?><!DOCTYPE svg PUBLIC "-//W3C//DTD SVG 1.1//EN" "http://www.w3.org/Graphics/SVG/1.1/DTD/svg11.dtd"><svg width="100%" height="100%" viewBox="0 0 571 567" version="1.1" xmlns="http://www.w3.org/2000/svg" xmlns:xlink="http://www.w3.org/1999/xlink" xml:space="preserve" xmlns:serif="http://www.serif.com/" style="fill-rule:evenodd;clip-rule:evenodd;stroke-linejoin:round;stroke-miterlimit:2;"><path d="M439.745,44.073c65.116,45.159 110.997,111.312 127.051,189.274c10.781,75.884 -3.34,149.559 -47.103,213.411c-46.681,61.269 -104.015,96.876 -177.588,116.716c-79.274,10.618 -157.315,-2.637 -223.356,-49.154c-11.549,-9.099 -22.424,-18.551 -33.171,-28.581c-4.487,-4.149 -4.487,-4.149 -9.065,-8.382c-26.882,-27.403 -42.186,-61.114 -57.601,-95.784c-1.558,-3.443 -3.116,-6.886 -4.72,-10.433c-21.529,-55.076 -17.05,-130.424 3.271,-185.124c35.083,-79.826 90.504,-138.592 172.494,-171.224c82.613,-27.246 175.644,-16.492 249.788,29.281Z" style="fill:#fff;fill-rule:nonzero;"/><path d="M241.21,151.56c7.122,-0.036 7.122,-0.036 14.387,-0.072c9.965,-0.04 19.931,-0.067 29.896,-0.083c15.177,-0.041 30.352,-0.17 45.528,-0.301c9.733,-0.027 19.466,-0.049 29.199,-0.065c6.74,-0.077 6.74,-0.077 13.616,-0.156c31.186,0.091 58.962,2.675 84.598,21.713c20.611,29.316 15.943,76.647 15.686,111.06c0.048,6.485 0.048,6.485 0.098,13.102c-0.204,81.938 -0.204,81.938 -19.629,102.262c-41.521,29.369 -121.371,16.804 -169.931,16.887c-14.454,0.041 -28.905,0.17 -43.359,0.301c-9.301,0.027 -18.603,0.049 -27.905,0.065c-4.263,0.052 -8.526,0.103 -12.919,0.156c-30.863,-0.095 -62.943,-2.46 -87.813,-22.356c-18.425,-36.85 -16.106,-81.146 -16.146,-121.355c-0.102,-5.441 -0.204,-10.881 -0.309,-16.487c-0.094,-30.847 1.43,-56.586 18.538,-82.992c30.186,-29.272 87.432,-21.525 126.465,-21.679Z" style="fill-rule:nonzero;"/><path d="M248.078,231.573c32.813,14.062 32.813,14.062 44.776,21.012c2.538,1.464 5.075,2.927 7.69,4.435c2.538,1.485 5.076,2.97 7.691,4.5c2.65,1.534 5.301,3.067 8.032,4.647c6.445,3.732 12.88,7.483 19.311,11.239l0,12.5c-7.135,5.626 -7.135,5.626 -17.024,11.247c-3.535,2.027 -7.069,4.055 -10.71,6.144c-3.738,2.081 -7.477,4.162 -11.328,6.307c-3.706,2.129 -7.412,4.259 -11.231,6.453c-27.637,15.682 -27.637,15.682 -37.207,15.682l0,-104.166Z" style="fill:#fff;fill-rule:nonzero;"/></svg>